<svg width="211" height="210" viewBox="0 0 211 210" fill="none" xmlns="http://www.w3.org/2000/svg">
<path d="M207.908 106.996L207.377 113.854C207.243 115.591 206.605 116.956 205.462 117.949C204.319 118.95 202.883 119.384 201.154 119.25C199.433 119.117 198.081 118.452 197.1 117.256C196.127 116.06 195.709 114.57 195.847 112.787L196.091 109.632L190.775 109.221L191.048 105.692L207.908 106.996ZM204.842 110.308L198.849 109.845L198.664 112.229C198.586 113.241 198.786 114.048 199.265 114.649C199.743 115.25 200.462 115.588 201.42 115.662C202.378 115.736 203.135 115.513 203.693 114.992C204.258 114.479 204.579 113.716 204.657 112.704L204.842 110.308Z" fill="#409DE2"/>
<path d="M190.19 130.609L187.338 129.94L189.835 119.295L206.299 123.157L205.49 126.603L191.879 123.41L190.19 130.609Z" fill="#409DE2"/>
<path d="M182.752 141.644L187.035 142.022L189.309 136.533L186.012 133.773L187.403 130.416L200.779 142.311L199.187 146.155L181.313 145.119L182.752 141.644ZM197.033 142.903L191.464 138.25L189.773 142.332L197.002 142.979L197.033 142.903Z" fill="#409DE2"/>
<path d="M176.421 152.659L178.321 149.673L183.65 153.064L195.746 153.787L193.677 157.04L185.554 156.358L185.51 156.428L189.562 163.506L187.524 166.71L181.75 156.049L176.421 152.659Z" fill="#409DE2"/>
<path d="M163.152 168.16L166.222 165.199L182.051 173.427L179.2 176.176L167.208 169.311L167.149 169.368L173.574 181.602L170.798 184.278L163.152 168.16Z" fill="#409DE2"/>
<path d="M155.043 174.763L157.874 172.64L168.021 186.168L165.189 188.292L155.043 174.763Z" fill="#409DE2"/>
<path d="M161.544 191.074L155.925 194.255C153.708 195.51 151.625 195.85 149.675 195.275C147.724 194.7 146.091 193.251 144.775 190.925C143.454 188.594 143.043 186.425 143.542 184.419C144.033 182.417 145.384 180.79 147.593 179.539L153.212 176.358L161.544 191.074ZM157.026 190.278L151.576 180.651L149.404 181.881C148.024 182.662 147.206 183.668 146.951 184.899C146.693 186.14 147.013 187.553 147.91 189.137C148.78 190.673 149.815 191.645 151.015 192.052C152.214 192.459 153.494 192.278 154.854 191.508L157.026 190.278Z" fill="#409DE2"/>
<path d="M130.077 190.379L129.069 187.628L139.587 183.771L145.408 199.648L134.89 203.504L133.886 200.765L141.081 198.126L139.677 194.297L132.889 196.787L131.953 194.234L138.741 191.745L137.273 187.74L130.077 190.379Z" fill="#409DE2"/>
<path d="M128.862 203.037C127.692 204.841 125.873 205.964 123.405 206.406C120.936 206.847 118.845 206.424 117.13 205.135C115.408 203.848 114.309 201.878 113.835 199.225C113.361 196.579 113.71 194.354 114.879 192.55C116.048 190.746 117.863 189.623 120.324 189.183C122.793 188.742 124.888 189.164 126.611 190.451C128.325 191.74 129.419 193.707 129.892 196.353C130.367 199.006 130.023 201.234 128.862 203.037ZM119.355 202.535C120.347 203.421 121.524 203.742 122.885 203.499C124.246 203.255 125.242 202.545 125.873 201.369C126.496 200.194 126.652 198.734 126.339 196.988C126.028 195.25 125.377 193.938 124.385 193.052C123.395 192.174 122.215 191.857 120.846 192.102C119.485 192.345 118.492 193.05 117.868 194.218C117.244 195.393 117.088 196.849 117.399 198.587C117.711 200.333 118.363 201.649 119.355 202.535Z" fill="#409DE2"/>
<path d="M97.2816 194.271C98.142 193.493 99.1418 193.133 100.281 193.19C101.42 193.247 102.379 193.706 103.157 194.566C103.935 195.427 104.296 196.426 104.238 197.566C104.181 198.705 103.722 199.663 102.862 200.442C102.001 201.227 101.001 201.592 99.862 201.535C98.7228 201.477 97.7644 201.015 96.9866 200.147C96.2006 199.286 95.8363 198.286 95.8935 197.147C95.9507 196.007 96.4134 195.049 97.2816 194.271Z" fill="#409DE2"/>
<path d="M84.4418 205.884L77.7889 204.135C76.1039 203.692 74.8751 202.82 74.1026 201.518C73.3224 200.215 73.1528 198.724 73.5937 197.047C74.0327 195.377 74.9284 194.166 76.281 193.415C77.6316 192.672 79.1721 192.527 80.9023 192.982L83.9624 193.787L85.318 188.63L88.7408 189.529L84.4418 205.884ZM81.731 202.275L83.2593 196.461L80.9473 195.853C79.965 195.595 79.1353 195.648 78.4582 196.011C77.7812 196.374 77.3205 197.021 77.0762 197.95C76.8319 198.879 76.9162 199.665 77.3291 200.307C77.7325 200.954 78.4253 201.407 79.4076 201.665L81.731 202.275Z" fill="#409DE2"/>
<path d="M64.4402 184.215L65.6116 181.529L75.6332 185.901L68.8718 201.401L65.628 199.985L71.2179 187.171L64.4402 184.215Z" fill="#409DE2"/>
<path d="M54.8473 174.853L53.7027 178.997L58.6919 182.223L62.0015 179.479L65.0521 181.452L50.9398 192.464L47.4464 190.205L51.6885 172.81L54.8473 174.853ZM51.033 188.672L56.6142 184.034L52.9042 181.635L50.9641 188.628L51.033 188.672Z" fill="#409DE2"/>
<path d="M45.1958 166.684L47.7963 169.085L43.512 173.726L40.6491 185.501L37.8161 182.886L39.9311 175.014L39.8709 174.958L32.1845 177.687L29.3946 175.112L40.9115 171.326L45.1958 166.684Z" fill="#409DE2"/>
<path d="M32.3641 150.93L34.7326 154.477L23.8245 168.593L21.6252 165.299L30.5108 154.717L30.4652 154.649L17.2851 158.798L15.1444 155.592L32.3641 150.93Z" fill="#409DE2"/>
<path d="M27.3462 141.839L28.9282 145.004L13.8014 152.563L12.2195 149.397L27.3462 141.839Z" fill="#409DE2"/>
<path d="M10.1735 145.413L8.04198 139.318C7.20122 136.914 7.23697 134.803 8.14921 132.986C9.06146 131.169 10.7786 129.819 13.3007 128.937C15.8302 128.053 18.0376 128.034 19.9229 128.881C21.8056 129.721 23.166 131.339 24.0042 133.735L26.1357 139.831L10.1735 145.413ZM11.7596 141.109L22.202 137.457L21.378 135.101C20.8545 133.604 20.0098 132.62 18.8442 132.151C17.6685 131.676 16.2215 131.74 14.5033 132.34C12.8366 132.923 11.6964 133.769 11.0826 134.878C10.4688 135.986 10.4198 137.278 10.9356 138.753L11.7596 141.109Z" fill="#409DE2"/>
<path d="M16.4536 114.43L19.3414 113.936L21.2295 124.979L4.56123 127.829L2.67309 116.786L5.54932 116.294L6.84099 123.849L10.8608 123.162L9.64218 116.035L12.322 115.576L13.5406 122.703L17.7452 121.984L16.4536 114.43Z" fill="#409DE2"/>
<path d="M4.17592 110.5C2.617 109.02 1.84721 107.025 1.86658 104.518C1.88594 102.01 2.68639 100.032 4.26793 98.5828C5.84954 97.1262 7.98796 96.4083 10.6832 96.4291C13.3706 96.4499 15.4938 97.2007 17.0527 98.6815C18.6116 100.162 19.3814 102.153 19.3621 104.653C19.3428 107.16 18.5423 109.143 16.9607 110.599C15.3792 112.048 13.2447 112.762 10.5573 112.741C7.86202 112.72 5.73491 111.973 4.17592 110.5ZM6.41539 101.248C5.36221 102.06 4.83029 103.158 4.81961 104.54C4.80894 105.923 5.32382 107.033 6.36427 107.869C7.40479 108.697 8.81173 109.118 10.5851 109.132C12.3507 109.146 13.7601 108.746 14.8132 107.934C15.8586 107.122 16.3867 106.02 16.3974 104.63C16.4081 103.247 15.8971 102.141 14.8644 101.313C13.8238 100.485 12.4208 100.064 10.6552 100.05C8.88185 100.036 7.46857 100.436 6.41539 101.248Z" fill="#409DE2"/>
<path d="M18.3748 81.728C18.986 82.714 19.1614 83.7623 18.9009 84.8727C18.6404 85.9832 18.0171 86.8441 17.0311 87.4553C16.0451 88.0666 14.9969 88.242 13.8864 87.9815C12.776 87.7209 11.9151 87.0977 11.3038 86.1117C10.6849 85.1239 10.5058 84.0748 10.7663 82.9643C11.0268 81.8538 11.6539 80.9939 12.6475 80.3844C13.6352 79.7655 14.6844 79.5863 15.7948 79.8469C16.9053 80.1074 17.7653 80.7344 18.3748 81.728Z" fill="#409DE2"/>
<path d="M9.19678 67.0123L12.1106 60.781C12.8486 59.2028 13.9272 58.1505 15.3463 57.6239C16.7688 57.0903 18.2656 57.1908 19.8367 57.9255C21.4007 58.6568 22.4308 59.7552 22.9272 61.2206C23.4164 62.6827 23.2821 64.224 22.5242 65.8447L21.184 68.7108L26.014 70.9694L24.5149 74.1753L9.19678 67.0123ZM13.233 64.9928L18.6787 67.5393L19.6914 65.3738C20.1216 64.4538 20.2188 63.6281 19.9829 62.8969C19.747 62.1656 19.1938 61.5964 18.3233 61.1894C17.4529 60.7823 16.665 60.7244 15.9596 61.0155C15.2505 61.2963 14.6808 61.8966 14.2506 62.8166L13.233 64.9928Z" fill="#409DE2"/>
<path d="M34.217 50.9814L36.6476 52.617L30.5435 61.688L16.514 52.2473L18.4899 49.3111L30.0887 57.1163L34.217 50.9814Z" fill="#409DE2"/>
<path d="M44.9204 43.4215L41.0456 41.5584L36.984 45.8948L39.0963 49.6394L36.6129 52.2908L28.2846 36.4459L31.1285 33.4096L47.4919 40.676L44.9204 43.4215ZM31.9991 37.2115L35.5718 43.5283L38.592 40.3039L32.0551 37.1516L31.9991 37.2115Z" fill="#409DE2"/>
<path d="M54.8962 35.1428L52.065 37.2662L48.2752 32.213L37.2127 27.2677L40.2971 24.9544L47.6564 28.4584L47.7221 28.4091L46.4284 20.356L49.4659 18.0779L51.1064 30.0896L54.8962 35.1428Z" fill="#409DE2"/>
<path d="M72.4956 25.4021L68.5794 27.093L56.658 13.8214L60.2944 12.2512L69.1035 22.897L69.1788 22.8644L67.4704 9.15265L71.01 7.62427L72.4956 25.4021Z" fill="#409DE2"/>
<path d="M82.4844 22.033L79.083 23.0103L74.4131 6.75779L77.8145 5.78044L82.4844 22.033Z" fill="#409DE2"/>
<path d="M81.8967 4.50086L88.2773 3.51027C90.7941 3.11955 92.8631 3.53754 94.4846 4.76425C96.106 5.99096 97.1217 7.92444 97.5316 10.5647C97.9427 13.2127 97.5608 15.3868 96.3859 17.0872C95.2187 18.7864 93.3806 19.8307 90.8716 20.2203L84.491 21.2108L81.8967 4.50086ZM85.8416 6.84135L87.5387 17.7729L90.0052 17.39C91.5724 17.1467 92.6926 16.4944 93.3659 15.4333C94.0457 14.3632 94.246 12.9288 93.9668 11.13C93.6959 9.38526 93.0711 8.11056 92.0923 7.30588C91.1135 6.5012 89.8521 6.21871 88.3081 6.45842L85.8416 6.84135Z" fill="#409DE2"/>
<path d="M111.431 16.2153L111.397 19.1447L100.195 19.015L100.391 2.10599L111.593 2.23572L111.559 5.15349L103.896 5.06474L103.849 9.1426L111.079 9.22632L111.047 11.9449L103.817 11.8612L103.768 16.1265L111.431 16.2153Z" fill="#409DE2"/>
<path d="M117.113 4.73989C118.845 3.46594 120.944 3.05919 123.409 3.51963C125.874 3.98007 127.681 5.11621 128.829 6.92806C129.984 8.74135 130.314 10.9727 129.819 13.6222C129.326 16.264 128.213 18.2219 126.481 19.4959C124.749 20.7698 122.654 21.1773 120.197 20.7183C117.732 20.2579 115.921 19.121 114.766 17.3077C113.618 15.4959 113.291 13.269 113.784 10.6272C114.279 7.97772 115.389 6.01528 117.113 4.73989ZM125.827 8.57292C125.213 7.39323 124.226 6.67644 122.867 6.42255C121.508 6.16866 120.325 6.48024 119.319 7.35727C118.32 8.23574 117.658 9.54661 117.332 11.2899C117.008 13.0255 117.153 14.4832 117.767 15.6629C118.383 16.8349 119.374 17.5485 120.741 17.8039C122.1 18.0577 123.279 17.7493 124.276 16.8785C125.274 16 125.936 14.693 126.26 12.9574C126.586 11.2141 126.441 9.75261 125.827 8.57292Z" fill="#409DE2"/>
<path d="M143.041 23.8202C141.962 24.2441 140.899 24.228 139.853 23.7719C138.808 23.3158 138.073 22.5479 137.649 21.468C137.225 20.3881 137.241 19.3254 137.698 18.2799C138.154 17.2345 138.922 16.4998 140.001 16.0759C141.084 15.6448 142.149 15.6573 143.194 16.1134C144.24 16.5695 144.973 17.341 145.394 18.4281C145.825 19.5111 145.812 20.5753 145.356 21.6208C144.9 22.6663 144.128 23.3994 143.041 23.8202Z" fill="#409DE2"/>
<path d="M159.383 17.5204L164.99 21.5057C166.41 22.515 167.251 23.765 167.514 25.2556C167.784 26.7508 167.416 28.2052 166.412 29.6188C165.411 31.0261 164.146 31.8423 162.615 32.0675C161.089 32.2862 159.597 31.8774 158.139 30.8409L155.56 29.0078L152.47 33.3538L149.586 31.3035L159.383 17.5204ZM160.645 21.8536L157.162 26.7536L159.11 28.1386C159.938 28.727 160.733 28.9708 161.495 28.8701C162.256 28.7693 162.916 28.3273 163.472 27.5441C164.029 26.7608 164.228 25.9961 164.068 25.25C163.919 24.502 163.431 23.8338 162.603 23.2454L160.645 21.8536Z" fill="#409DE2"/>
<path d="M170.641 44.9459L168.599 47.0474L160.757 39.4293L172.539 27.2996L175.078 29.7654L165.337 39.7937L170.641 44.9459Z" fill="#409DE2"/>
<path d="M176.503 57.2596L179.037 53.7858L175.507 49.0068L171.442 50.4068L169.283 47.4847L186.373 42.1602L188.845 45.5065L178.738 60.2854L176.503 57.2596ZM184.948 45.6749L178.089 48.0459L180.714 51.5996L184.997 45.7409L184.948 45.6749Z" fill="#409DE2"/>
<path d="M182.637 68.2317L181.055 65.0659L186.706 62.2425L193.553 52.2448L195.276 55.6936L190.51 62.3063L190.547 62.3797L198.702 62.5494L200.399 65.9459L188.288 65.4083L182.637 68.2317Z" fill="#409DE2"/>
<path d="M189.056 87.3434L188.097 83.1868L203.298 73.8489L204.188 77.7086L192.131 84.4576L192.149 84.5375L205.944 85.3251L206.811 89.082L189.056 87.3434Z" fill="#409DE2"/>
<path d="M190.553 97.7023L190.199 94.181L207.024 92.4886L207.378 96.0099L190.553 97.7023Z" fill="#409DE2"/>
<path d="M119 105.5L98.75 117.191L98.75 93.8087L119 105.5Z" fill="#409DE2"/>
</svg>
