<svg width="1468" height="203" viewBox="0 0 1468 203" fill="none" xmlns="http://www.w3.org/2000/svg">
<path opacity="0.2" d="M132.375 64.3438V63.3438H131.615L131.412 64.076L132.375 64.3438ZM133.641 64.3438L134.604 64.076L134.401 63.3438H133.641V64.3438ZM172.172 203L171.208 203.268L171.412 204H172.172V203ZM212.25 203V204H213.019L213.217 203.257L212.25 203ZM266.109 0.078125L267.076 0.334663L267.409 -0.921875H266.109V0.078125ZM222.094 0.078125V-0.921875H221.288L221.117 -0.13504L222.094 0.078125ZM190.031 147.031V148.031H190.837L191.008 147.244L190.031 147.031ZM188.906 147.031L187.938 147.281L188.132 148.031H188.906V147.031ZM150.938 0.078125L151.906 -0.172035L151.712 -0.921875H150.938V0.078125ZM115.078 0.078125V-0.921875H114.304L114.11 -0.172035L115.078 0.078125ZM77.1094 147.031V148.031H77.8838L78.0776 147.281L77.1094 147.031ZM75.9844 147.031L75.0072 147.244L75.1783 148.031H75.9844V147.031ZM44.0625 0.078125L45.0397 -0.134148L44.8686 -0.921875H44.0625V0.078125ZM0.046875 0.078125V-0.921875H-1.2523L-0.919826 0.334038L0.046875 0.078125ZM53.7656 203L52.7989 203.256L52.9959 204H53.7656V203ZM93.8438 203V204H94.6038L94.8072 203.268L93.8438 203ZM132.375 65.3438H133.641V63.3438H132.375V65.3438ZM132.677 64.6115L171.208 203.268L173.135 202.732L134.604 64.076L132.677 64.6115ZM172.172 204H212.25V202H172.172V204ZM213.217 203.257L267.076 0.334663L265.143 -0.178413L211.283 202.743L213.217 203.257ZM266.109 -0.921875H222.094V1.07812H266.109V-0.921875ZM221.117 -0.13504L189.054 146.818L191.008 147.244L223.071 0.29129L221.117 -0.13504ZM190.031 146.031H188.906V148.031H190.031V146.031ZM189.874 146.781L151.906 -0.172035L149.969 0.328285L187.938 147.281L189.874 146.781ZM150.938 -0.921875H115.078V1.07812H150.938V-0.921875ZM114.11 -0.172035L76.1412 146.781L78.0776 147.281L116.046 0.328285L114.11 -0.172035ZM77.1094 146.031H75.9844V148.031H77.1094V146.031ZM76.9616 146.819L45.0397 -0.134148L43.0853 0.290398L75.0072 147.244L76.9616 146.819ZM44.0625 -0.921875H0.046875V1.07812H44.0625V-0.921875ZM-0.919826 0.334038L52.7989 203.256L54.7323 202.744L1.01358 -0.177788L-0.919826 0.334038ZM53.7656 204H93.8438V202H53.7656V204ZM94.8072 203.268L133.338 64.6115L131.412 64.076L92.8803 202.732L94.8072 203.268ZM331.5 203V204H332.5V203H331.5ZM331.5 0.078125H332.5V-0.921875H331.5V0.078125ZM289.031 0.078125V-0.921875H288.031V0.078125H289.031ZM289.031 203H288.031V204H289.031V203ZM332.5 203V0.078125H330.5V203H332.5ZM331.5 -0.921875H289.031V1.07812H331.5V-0.921875ZM288.031 0.078125V203H290.031V0.078125H288.031ZM289.031 204H331.5V202H289.031V204ZM365.25 0.078125V-0.921875H364.25V0.078125H365.25ZM365.25 203H364.25V204H365.25V203ZM407.719 35.0938V34.0938H406.719V35.0938H407.719ZM407.719 167.844H406.719V168.844H407.719V167.844ZM364.25 0.078125V203H366.25V0.078125H364.25ZM365.25 204H442.734V202H365.25V204ZM442.734 204C473.391 204 497.865 194.472 514.669 176.723C531.467 158.981 540.484 133.149 540.484 100.766H538.484C538.484 132.788 529.572 158.074 513.217 175.348C496.869 192.614 472.968 202 442.734 202V204ZM540.484 100.766C540.484 68.3813 531.467 42.9312 514.662 25.574C497.853 8.21236 473.379 -0.921875 442.734 -0.921875V1.07812C472.98 1.07812 496.882 10.0845 513.225 26.9651C529.572 43.85 538.484 68.7437 538.484 100.766H540.484ZM442.734 -0.921875H365.25V1.07812H442.734V-0.921875ZM407.719 36.0938H437.672V34.0938H407.719V36.0938ZM437.672 36.0938C456.16 36.0938 470.486 41.8554 480.203 52.7402C489.936 63.6425 495.172 79.8249 495.172 100.906H497.172C497.172 79.5188 491.861 62.795 481.695 51.4082C471.514 40.004 456.59 34.0938 437.672 34.0938V36.0938ZM495.172 100.906C495.172 122.704 490.07 139.166 480.409 150.168C470.767 161.149 456.448 166.844 437.672 166.844V168.844C456.864 168.844 471.796 163.008 481.912 151.488C492.008 139.99 497.172 122.983 497.172 100.906H495.172ZM437.672 166.844H407.719V168.844H437.672V166.844ZM408.719 167.844V35.0938H406.719V167.844H408.719ZM701.344 167.844H702.344V166.844H701.344V167.844ZM609.375 167.844H608.375V168.844H609.375V167.844ZM609.375 116.656V115.656H608.375V116.656H609.375ZM696.141 116.656V117.656H697.141V116.656H696.141ZM696.141 84.0312H697.141V83.0312H696.141V84.0312ZM609.375 84.0312H608.375V85.0312H609.375V84.0312ZM609.375 35.0938V34.0938H608.375V35.0938H609.375ZM701.344 35.0938V36.0938H702.344V35.0938H701.344ZM701.344 0.078125H702.344V-0.921875H701.344V0.078125ZM566.906 0.078125V-0.921875H565.906V0.078125H566.906ZM566.906 203H565.906V204H566.906V203ZM701.344 203V204H702.344V203H701.344ZM701.344 166.844H609.375V168.844H701.344V166.844ZM610.375 167.844V116.656H608.375V167.844H610.375ZM609.375 117.656H696.141V115.656H609.375V117.656ZM697.141 116.656V84.0312H695.141V116.656H697.141ZM696.141 83.0312H609.375V85.0312H696.141V83.0312ZM610.375 84.0312V35.0938H608.375V84.0312H610.375ZM609.375 36.0938H701.344V34.0938H609.375V36.0938ZM702.344 35.0938V0.078125H700.344V35.0938H702.344ZM701.344 -0.921875H566.906V1.07812H701.344V-0.921875ZM565.906 0.078125V203H567.906V0.078125H565.906ZM566.906 204H701.344V202H566.906V204ZM702.344 203V167.844H700.344V203H702.344ZM863.203 167.844H864.203V166.844H863.203V167.844ZM774.469 167.844H773.469V168.844H774.469V167.844ZM774.469 0.078125H775.469V-0.921875H774.469V0.078125ZM732 0.078125V-0.921875H731V0.078125H732ZM732 203H731V204H732V203ZM863.203 203V204H864.203V203H863.203ZM863.203 166.844H774.469V168.844H863.203V166.844ZM775.469 167.844V0.078125H773.469V167.844H775.469ZM774.469 -0.921875H732V1.07812H774.469V-0.921875ZM731 0.078125V203H733V0.078125H731ZM732 204H863.203V202H732V204ZM864.203 203V167.844H862.203V203H864.203ZM1021.27 203L1020.31 203.3L1020.53 204H1021.27V203ZM1066.41 203V204H1067.81L1067.35 202.671L1066.41 203ZM995.812 0.078125L996.757 -0.25045L996.523 -0.921875H995.812V0.078125ZM945.891 0.078125V-0.921875H945.179L944.946 -0.249863L945.891 0.078125ZM875.438 203L874.493 202.672L874.032 204H875.438V203ZM919.031 203V204H919.765L919.985 203.3L919.031 203ZM934.5 153.781V152.781H933.766L933.546 153.481L934.5 153.781ZM1005.8 153.781L1006.75 153.481L1006.53 152.781H1005.8V153.781ZM969.656 38.8906V37.8906H968.921L968.702 38.5919L969.656 38.8906ZM970.641 38.8906L971.595 38.5919L971.375 37.8906H970.641V38.8906ZM996.656 122V123H998.017L997.611 121.701L996.656 122ZM943.641 122L942.686 121.701L942.28 123H943.641V122ZM1021.27 204H1066.41V202H1021.27V204ZM1067.35 202.671L996.757 -0.25045L994.868 0.4067L1065.46 203.329L1067.35 202.671ZM995.812 -0.921875H945.891V1.07812H995.812V-0.921875ZM944.946 -0.249863L874.493 202.672L876.382 203.328L946.835 0.406113L944.946 -0.249863ZM875.438 204H919.031V202H875.438V204ZM919.985 203.3L935.454 154.081L933.546 153.481L918.077 202.7L919.985 203.3ZM934.5 154.781H1005.8V152.781H934.5V154.781ZM1004.84 154.081L1020.31 203.3L1022.22 202.7L1006.75 153.481L1004.84 154.081ZM969.656 39.8906H970.641V37.8906H969.656V39.8906ZM969.686 39.1894L995.702 122.299L997.611 121.701L971.595 38.5919L969.686 39.1894ZM996.656 121H943.641V123H996.656V121ZM944.595 122.299L970.611 39.1894L968.702 38.5919L942.686 121.701L944.595 122.299ZM1127.86 203V204H1128.86V203H1127.86ZM1127.86 70.1094V69.1094H1126.86V70.1094H1127.86ZM1129.12 70.1094L1129.94 69.5281L1129.64 69.1094H1129.12V70.1094ZM1224.05 203L1223.23 203.581L1223.53 204H1224.05V203ZM1259.2 203V204H1260.2V203H1259.2ZM1259.2 0.078125H1260.2V-0.921875H1259.2V0.078125ZM1218.56 0.078125V-0.921875H1217.56V0.078125H1218.56ZM1218.56 132.266V133.266H1219.56V132.266H1218.56ZM1217.44 132.266L1216.62 132.848L1216.92 133.266H1217.44V132.266ZM1122.66 0.078125L1123.47 -0.504585L1123.17 -0.921875H1122.66V0.078125ZM1087.22 0.078125V-0.921875H1086.22V0.078125H1087.22ZM1087.22 203H1086.22V204H1087.22V203ZM1128.86 203V70.1094H1126.86V203H1128.86ZM1127.86 71.1094H1129.12V69.1094H1127.86V71.1094ZM1128.31 70.6906L1223.23 203.581L1224.86 202.419L1129.94 69.5281L1128.31 70.6906ZM1224.05 204H1259.2V202H1224.05V204ZM1260.2 203V0.078125H1258.2V203H1260.2ZM1259.2 -0.921875H1218.56V1.07812H1259.2V-0.921875ZM1217.56 0.078125V132.266H1219.56V0.078125H1217.56ZM1218.56 131.266H1217.44V133.266H1218.56V131.266ZM1218.25 131.683L1123.47 -0.504585L1121.84 0.660835L1216.62 132.848L1218.25 131.683ZM1122.66 -0.921875H1087.22V1.07812H1122.66V-0.921875ZM1086.22 0.078125V203H1088.22V0.078125H1086.22ZM1087.22 204H1127.86V202H1087.22V204ZM1293.09 0.078125V-0.921875H1292.09V0.078125H1293.09ZM1293.09 203H1292.09V204H1293.09V203ZM1335.56 35.0938V34.0938H1334.56V35.0938H1335.56ZM1335.56 167.844H1334.56V168.844H1335.56V167.844ZM1292.09 0.078125V203H1294.09V0.078125H1292.09ZM1293.09 204H1370.58V202H1293.09V204ZM1370.58 204C1401.23 204 1425.71 194.472 1442.51 176.723C1459.31 158.981 1468.33 133.149 1468.33 100.766H1466.33C1466.33 132.788 1457.42 158.074 1441.06 175.348C1424.71 192.614 1400.81 202 1370.58 202V204ZM1468.33 100.766C1468.33 68.3813 1459.31 42.9312 1442.51 25.574C1425.7 8.21236 1401.22 -0.921875 1370.58 -0.921875V1.07812C1400.82 1.07812 1424.73 10.0845 1441.07 26.9651C1457.42 43.85 1466.33 68.7437 1466.33 100.766H1468.33ZM1370.58 -0.921875H1293.09V1.07812H1370.58V-0.921875ZM1335.56 36.0938H1365.52V34.0938H1335.56V36.0938ZM1365.52 36.0938C1384 36.0938 1398.33 41.8554 1408.05 52.7402C1417.78 63.6425 1423.02 79.8249 1423.02 100.906H1425.02C1425.02 79.5188 1419.7 62.795 1409.54 51.4082C1399.36 40.004 1384.43 34.0938 1365.52 34.0938V36.0938ZM1423.02 100.906C1423.02 122.704 1417.91 139.166 1408.25 150.168C1398.61 161.149 1384.29 166.844 1365.52 166.844V168.844C1384.71 168.844 1399.64 163.008 1409.76 151.488C1419.85 139.99 1425.02 122.983 1425.02 100.906H1423.02ZM1365.52 166.844H1335.56V168.844H1365.52V166.844ZM1336.56 167.844V35.0938H1334.56V167.844H1336.56Z" fill="#072234"/>
</svg>
