<svg width="210" height="58" viewBox="0 0 210 58" fill="none" xmlns="http://www.w3.org/2000/svg">
<rect width="210" height="58" fill="#216DA6"/>
<path d="M68.2266 33.0469V35H60.9375V23.7266H63.2969V33.0469H68.2266ZM70.2656 25.1016C71.2448 24.0547 72.5703 23.5312 74.2422 23.5312C75.9141 23.5312 77.237 24.0547 78.2109 25.1016C79.1901 26.1484 79.6797 27.5703 79.6797 29.3672C79.6797 31.1589 79.1901 32.5781 78.2109 33.625C77.2318 34.6719 75.9089 35.1953 74.2422 35.1953C72.5703 35.1953 71.2448 34.6719 70.2656 33.625C69.2917 32.5781 68.8047 31.1589 68.8047 29.3672C68.8047 27.5703 69.2917 26.1484 70.2656 25.1016ZM76.4453 26.5469C75.8984 25.849 75.1641 25.5 74.2422 25.5C73.3203 25.5 72.5833 25.849 72.0312 26.5469C71.4844 27.2448 71.2109 28.1849 71.2109 29.3672C71.2109 30.5443 71.4844 31.4818 72.0312 32.1797C72.5781 32.8724 73.3151 33.2188 74.2422 33.2188C75.1641 33.2188 75.8984 32.8724 76.4453 32.1797C76.9922 31.4818 77.2656 30.5443 77.2656 29.3672C77.2656 28.1849 76.9922 27.2448 76.4453 26.5469ZM88.1172 35L87.2578 32.2656H83.2969L82.4375 35H80.0156L83.9297 23.7266H86.7031L90.625 35H88.1172ZM85.25 25.8828L83.8047 30.5H86.75L85.3047 25.8828H85.25ZM91.7812 23.7266H96.0859C97.7839 23.7266 99.1042 24.2135 100.047 25.1875C100.99 26.1615 101.461 27.5391 101.461 29.3203C101.461 31.1068 100.987 32.5 100.039 33.5C99.0964 34.5 97.7786 35 96.0859 35H91.7812V23.7266ZM94.1406 25.6719V33.0469H95.8047C96.862 33.0469 97.6667 32.7318 98.2188 32.1016C98.776 31.4661 99.0547 30.5417 99.0547 29.3281C99.0547 28.151 98.7734 27.2474 98.2109 26.6172C97.6484 25.987 96.8464 25.6719 95.8047 25.6719H94.1406ZM118.094 35H115.992V27.3906H115.93L112.867 34.8906H111.383L108.32 27.3906H108.258V35H106.156V23.7266H108.891L112.094 31.7188H112.156L115.359 23.7266H118.094V35ZM121.078 25.1016C122.057 24.0547 123.383 23.5312 125.055 23.5312C126.727 23.5312 128.049 24.0547 129.023 25.1016C130.003 26.1484 130.492 27.5703 130.492 29.3672C130.492 31.1589 130.003 32.5781 129.023 33.625C128.044 34.6719 126.721 35.1953 125.055 35.1953C123.383 35.1953 122.057 34.6719 121.078 33.625C120.104 32.5781 119.617 31.1589 119.617 29.3672C119.617 27.5703 120.104 26.1484 121.078 25.1016ZM127.258 26.5469C126.711 25.849 125.977 25.5 125.055 25.5C124.133 25.5 123.396 25.849 122.844 26.5469C122.297 27.2448 122.023 28.1849 122.023 29.3672C122.023 30.5443 122.297 31.4818 122.844 32.1797C123.391 32.8724 124.128 33.2188 125.055 33.2188C125.977 33.2188 126.711 32.8724 127.258 32.1797C127.805 31.4818 128.078 30.5443 128.078 29.3672C128.078 28.1849 127.805 27.2448 127.258 26.5469ZM134.375 25.5703V29.1641H136.406C137 29.1641 137.461 29.0052 137.789 28.6875C138.122 28.3698 138.289 27.9297 138.289 27.3672C138.289 26.8203 138.117 26.3854 137.773 26.0625C137.43 25.7344 136.966 25.5703 136.383 25.5703H134.375ZM134.375 30.875V35H132.016V23.7266H136.633C137.919 23.7266 138.919 24.0469 139.633 24.6875C140.352 25.3229 140.711 26.2005 140.711 27.3203C140.711 28.0547 140.529 28.7109 140.164 29.2891C139.805 29.862 139.305 30.2734 138.664 30.5234L141.039 35H138.367L136.266 30.875H134.375ZM149.734 33.0469V35H142.266V23.7266H149.734V25.6719H144.625V28.3906H149.445V30.2031H144.625V33.0469H149.734Z" fill="white"/>
</svg>
