<svg width="24" height="26" viewBox="0 0 24 26" fill="none" xmlns="http://www.w3.org/2000/svg">
<path d="M3 3.84532H21C21.2652 3.84532 21.5196 3.95297 21.7071 4.14457C21.8946 4.33618 22 4.59605 22 4.86702V21.2143C22 21.4852 21.8946 21.7451 21.7071 21.9367C21.5196 22.1283 21.2652 22.236 21 22.236H3C2.73478 22.236 2.48043 22.1283 2.29289 21.9367C2.10536 21.7451 2 21.4852 2 21.2143V4.86702C2 4.59605 2.10536 4.33618 2.29289 4.14457C2.48043 3.95297 2.73478 3.84532 3 3.84532V3.84532ZM12.06 12.7168L5.648 7.1536L4.353 8.71067L12.073 15.4079L19.654 8.70556L18.346 7.15973L12.061 12.7168H12.06Z" fill="#409DE2"/>
</svg>
